<?xml version="1.0" encoding="UTF-8"?>
<svg width="512pt" height="512pt" version="1.1" viewBox="0 0 512 512" xmlns="http://www.w3.org/2000/svg">
 <path d="m368.64 256.2c0.039063 2.7773-1.0742 5.4492-3.0742 7.375l-204.8 204.8h0.003906c-1.8906 1.9297-4.4688 3.0312-7.168 3.0703-2.7695-0.007813-5.4219-1.1094-7.375-3.0703-3.9258-4.0508-3.9258-10.492 0-14.543l197.02-197.02-196.81-198.04c-1.9414-1.9219-3.0312-4.5391-3.0312-7.2695 0-2.7305 1.0898-5.3477 3.0312-7.2695 1.8555-1.9805 4.4492-3.1055 7.168-3.1055 2.7148 0 5.3086 1.125 7.168 3.1055l204.8 204.8-0.003906-0.003906c1.9922 1.8516 3.1055 4.4531 3.0742 7.168z"/>
</svg>
