<?xml version="1.0" encoding="UTF-8"?>
<svg width="1200pt" height="1200pt" version="1.1" viewBox="0 0 1200 1200" xmlns="http://www.w3.org/2000/svg">
 <path d="m1190.2 464.73c-2.7578-8.4297-10.637-14.199-19.543-14.199h-421.06l-130.11-400.46c-5.5195-16.859-33.57-16.859-39.09 0l-130.09 400.46-421.06 0.003906c-8.9062 0-16.785 5.7695-19.543 14.199-2.7578 8.4805 0.25 17.762 7.4766 22.98l340.62 247.47-130.11 400.41c-2.7578 8.4805 0.25 17.762 7.4492 22.98 7.2266 5.3164 16.961 5.3164 24.184 0l340.6-247.47 340.66 247.47c3.5898 2.6602 7.8281 3.9648 12.066 3.9648s8.4805-1.3047 12.094-3.9648c7.1992-5.2188 10.211-14.5 7.4492-22.98l-130.11-400.41 340.65-247.47c7.2031-5.2148 10.215-14.5 7.4531-22.98z" fill="#FABB0A"/>
</svg>
